<mxfile host="app.diagrams.net" agent="Mozilla/5.0 (Windows NT 10.0; Win64; x64) AppleWebKit/537.36 (KHTML, like Gecko) Chrome/131.0.0.0 Safari/537.36" version="24.8.6">
  <diagram name="Sayfa -1" id="mtEO81cpV2xsTkSk3jY8">
    <mxGraphModel dx="989" dy="532" grid="1" gridSize="10" guides="1" tooltips="1" connect="1" arrows="1" fold="1" page="1" pageScale="1" pageWidth="1169" pageHeight="827" math="0" shadow="0">
      <root>
        <mxCell id="0" />
        <mxCell id="1" parent="0" />
        <mxCell id="4YNAW3lscO4qDWVvHvQ5-14" style="rounded=0;orthogonalLoop=1;jettySize=auto;html=1;exitX=0.5;exitY=0.5;exitDx=0;exitDy=0;exitPerimeter=0;" edge="1" parent="1" source="4YNAW3lscO4qDWVvHvQ5-1" target="4YNAW3lscO4qDWVvHvQ5-7">
          <mxGeometry relative="1" as="geometry" />
        </mxCell>
        <mxCell id="4YNAW3lscO4qDWVvHvQ5-15" style="rounded=0;orthogonalLoop=1;jettySize=auto;html=1;entryX=0;entryY=0.5;entryDx=0;entryDy=0;exitX=0.5;exitY=0.5;exitDx=0;exitDy=0;exitPerimeter=0;" edge="1" parent="1" source="4YNAW3lscO4qDWVvHvQ5-1" target="4YNAW3lscO4qDWVvHvQ5-9">
          <mxGeometry relative="1" as="geometry" />
        </mxCell>
        <mxCell id="4YNAW3lscO4qDWVvHvQ5-16" style="rounded=0;orthogonalLoop=1;jettySize=auto;html=1;entryX=0;entryY=0.5;entryDx=0;entryDy=0;exitX=0.5;exitY=0.5;exitDx=0;exitDy=0;exitPerimeter=0;" edge="1" parent="1" source="4YNAW3lscO4qDWVvHvQ5-1" target="4YNAW3lscO4qDWVvHvQ5-10">
          <mxGeometry relative="1" as="geometry" />
        </mxCell>
        <mxCell id="4YNAW3lscO4qDWVvHvQ5-22" style="rounded=0;orthogonalLoop=1;jettySize=auto;html=1;exitX=0.5;exitY=0.5;exitDx=0;exitDy=0;exitPerimeter=0;entryX=0;entryY=0.5;entryDx=0;entryDy=0;" edge="1" parent="1" source="4YNAW3lscO4qDWVvHvQ5-1" target="4YNAW3lscO4qDWVvHvQ5-11">
          <mxGeometry relative="1" as="geometry" />
        </mxCell>
        <mxCell id="4YNAW3lscO4qDWVvHvQ5-1" value="Çocuklar" style="shape=umlActor;verticalLabelPosition=bottom;verticalAlign=top;html=1;outlineConnect=0;" vertex="1" parent="1">
          <mxGeometry x="180" y="120" width="30" height="60" as="geometry" />
        </mxCell>
        <mxCell id="4YNAW3lscO4qDWVvHvQ5-21" style="rounded=0;orthogonalLoop=1;jettySize=auto;html=1;exitX=0.5;exitY=0.5;exitDx=0;exitDy=0;exitPerimeter=0;entryX=1;entryY=0.5;entryDx=0;entryDy=0;" edge="1" parent="1" source="4YNAW3lscO4qDWVvHvQ5-2" target="4YNAW3lscO4qDWVvHvQ5-12">
          <mxGeometry relative="1" as="geometry" />
        </mxCell>
        <mxCell id="4YNAW3lscO4qDWVvHvQ5-2" value="Havayolu Personeli" style="shape=umlActor;verticalLabelPosition=bottom;verticalAlign=top;html=1;outlineConnect=0;" vertex="1" parent="1">
          <mxGeometry x="600" y="280" width="30" height="60" as="geometry" />
        </mxCell>
        <mxCell id="4YNAW3lscO4qDWVvHvQ5-19" style="rounded=0;orthogonalLoop=1;jettySize=auto;html=1;exitX=0.5;exitY=0.5;exitDx=0;exitDy=0;exitPerimeter=0;entryX=0;entryY=0.5;entryDx=0;entryDy=0;" edge="1" parent="1" source="4YNAW3lscO4qDWVvHvQ5-3" target="4YNAW3lscO4qDWVvHvQ5-11">
          <mxGeometry relative="1" as="geometry" />
        </mxCell>
        <mxCell id="4YNAW3lscO4qDWVvHvQ5-20" style="rounded=0;orthogonalLoop=1;jettySize=auto;html=1;exitX=0.5;exitY=0.5;exitDx=0;exitDy=0;exitPerimeter=0;entryX=0;entryY=0.5;entryDx=0;entryDy=0;" edge="1" parent="1" source="4YNAW3lscO4qDWVvHvQ5-3" target="4YNAW3lscO4qDWVvHvQ5-12">
          <mxGeometry relative="1" as="geometry" />
        </mxCell>
        <mxCell id="4YNAW3lscO4qDWVvHvQ5-23" style="rounded=0;orthogonalLoop=1;jettySize=auto;html=1;exitX=0.5;exitY=0.5;exitDx=0;exitDy=0;exitPerimeter=0;entryX=0;entryY=0.5;entryDx=0;entryDy=0;" edge="1" parent="1" source="4YNAW3lscO4qDWVvHvQ5-3" target="4YNAW3lscO4qDWVvHvQ5-10">
          <mxGeometry relative="1" as="geometry" />
        </mxCell>
        <mxCell id="4YNAW3lscO4qDWVvHvQ5-3" value="Ebeveynler" style="shape=umlActor;verticalLabelPosition=bottom;verticalAlign=top;html=1;outlineConnect=0;" vertex="1" parent="1">
          <mxGeometry x="180" y="340" width="30" height="60" as="geometry" />
        </mxCell>
        <mxCell id="4YNAW3lscO4qDWVvHvQ5-7" value="Oyun Oynama" style="ellipse;whiteSpace=wrap;html=1;fillColor=#ffe6cc;strokeColor=#d79b00;" vertex="1" parent="1">
          <mxGeometry x="350" y="50" width="100" height="70" as="geometry" />
        </mxCell>
        <mxCell id="4YNAW3lscO4qDWVvHvQ5-8" style="edgeStyle=orthogonalEdgeStyle;rounded=0;orthogonalLoop=1;jettySize=auto;html=1;exitX=0.5;exitY=1;exitDx=0;exitDy=0;" edge="1" parent="1" source="4YNAW3lscO4qDWVvHvQ5-7" target="4YNAW3lscO4qDWVvHvQ5-7">
          <mxGeometry relative="1" as="geometry" />
        </mxCell>
        <mxCell id="4YNAW3lscO4qDWVvHvQ5-9" value="Ödül Kazanma" style="ellipse;whiteSpace=wrap;html=1;fillColor=#ffe6cc;strokeColor=#d79b00;" vertex="1" parent="1">
          <mxGeometry x="350" y="140" width="100" height="70" as="geometry" />
        </mxCell>
        <mxCell id="4YNAW3lscO4qDWVvHvQ5-10" value="Kart Okuma" style="ellipse;whiteSpace=wrap;html=1;fillColor=#ffe6cc;strokeColor=#d79b00;" vertex="1" parent="1">
          <mxGeometry x="350" y="230" width="100" height="70" as="geometry" />
        </mxCell>
        <mxCell id="4YNAW3lscO4qDWVvHvQ5-11" value="Geri Bildirim Gönderme" style="ellipse;whiteSpace=wrap;html=1;fillColor=#ffe6cc;strokeColor=#d79b00;" vertex="1" parent="1">
          <mxGeometry x="350" y="320" width="100" height="70" as="geometry" />
        </mxCell>
        <mxCell id="4YNAW3lscO4qDWVvHvQ5-12" value="Kart Yönetimi" style="ellipse;whiteSpace=wrap;html=1;fillColor=#ffe6cc;strokeColor=#d79b00;" vertex="1" parent="1">
          <mxGeometry x="350" y="410" width="100" height="70" as="geometry" />
        </mxCell>
      </root>
    </mxGraphModel>
  </diagram>
</mxfile>
